<svg xmlns="http://www.w3.org/2000/svg" width="48" height="48" viewBox="0 0 48 48"><defs><style>.a,.b{fill:none;}.a{stroke:#0bab64;stroke-linecap:round;stroke-linejoin:round;stroke-width:2px;}.b{opacity:0;}</style></defs><g transform="translate(-556 -572)"><g transform="translate(556 572)"><path class="a" d="M29.98,0h-20C2.32,0,.18,1.84,0,9a6.991,6.991,0,0,1,6.98,7A7,7,0,0,1,0,23c.18,7.16,2.32,9,9.98,9h20c8,0,10-2,10-10V10C39.98,2,37.98,0,29.98,0Z" transform="translate(4.01 8)"/><path class="a" d="M0,0V7" transform="translate(17.987 8)"/><path class="a" d="M0,0V7" transform="translate(17.987 33)"/><path class="a" d="M6.775.465l1.24,2.5a.86.86,0,0,0,.62.46l2.76.4a.832.832,0,0,1,.46,1.42l-2,1.94a.827.827,0,0,0-.24.74l.48,2.74a.83.83,0,0,1-1.2.88l-2.46-1.3a.89.89,0,0,0-.78,0l-2.46,1.3a.827.827,0,0,1-1.2-.88l.48-2.74a.845.845,0,0,0-.24-.74L.255,5.245a.832.832,0,0,1,.46-1.42l2.76-.4a.781.781,0,0,0,.62-.46l1.22-2.5A.805.805,0,0,1,6.775.465Z" transform="translate(23.275 18.195)"/><path class="b" d="M0,0H48V48H0Z"/></g></g></svg>