<svg xmlns="http://www.w3.org/2000/svg" width="48" height="48" viewBox="0 0 48 48"><defs><style>.a,.b{fill:none;}.a{stroke:#0bab64;stroke-linecap:round;stroke-linejoin:round;stroke-width:2px;}.b{opacity:0;}</style></defs><g transform="translate(-492 -188)"><g transform="translate(492 188)"><path class="a" d="M14.16.465,4.18,4.225A6.94,6.94,0,0,0,0,10.245V25.1a9.723,9.723,0,0,0,3.46,6.88l8.6,6.42a9.1,9.1,0,0,0,10.28,0l8.6-6.42A9.723,9.723,0,0,0,34.4,25.1V10.245A6.944,6.944,0,0,0,30.22,4.2L20.24.465A10.169,10.169,0,0,0,14.16.465Z" transform="translate(6.82 3.995)"/><path class="b" d="M0,0H48V48H0Z" transform="translate(48 48) rotate(180)"/><path class="a" d="M8,4A4,4,0,1,1,4,0,4,4,0,0,1,8,4Z" transform="translate(20 17)"/><path class="a" d="M0,0V6" transform="translate(24 25)"/></g></g></svg>