<svg xmlns="http://www.w3.org/2000/svg" width="48" height="48" viewBox="0 0 48 48"><defs><style>.a,.b{fill:none;}.a{stroke:#0bab64;stroke-linecap:round;stroke-linejoin:round;stroke-width:2px;}.b{opacity:0;}</style></defs><g transform="translate(-364 -252)"><g transform="translate(364 252)"><path class="a" d="M0,14V9A8.988,8.988,0,0,1,9,0h5" transform="translate(4 4)"/><path class="a" d="M0,0H5a8.988,8.988,0,0,1,9,9v5" transform="translate(30 4)"/><path class="a" d="M12,0V3a8.988,8.988,0,0,1-9,9H0" transform="translate(32 32)"/><path class="a" d="M14,14H9A8.988,8.988,0,0,1,0,5V0" transform="translate(4 30)"/><path class="a" d="M20,6V16q0,6-6,6H6q-6,0-6-6V6Q0,0,6,0h8Q20,0,20,6Z" transform="translate(14 13)"/><path class="a" d="M28,0H0" transform="translate(10 24)"/><path class="b" d="M0,0H48V48H0Z" transform="translate(48 48) rotate(180)"/></g></g></svg>