<svg xmlns="http://www.w3.org/2000/svg" width="48" height="48" viewBox="0 0 48 48"><defs><style>.a,.b{fill:none;}.a{stroke:#0bab64;stroke-linecap:round;stroke-linejoin:round;stroke-width:2px;}.b{opacity:0;}</style></defs><g transform="translate(-428 -316)"><g transform="translate(428 316)"><path class="a" d="M35.64,18.225c0,9.78-7.1,18.94-16.8,21.62a3.921,3.921,0,0,1-2.04,0C7.1,37.165,0,28,0,18.225V9.445a4.8,4.8,0,0,1,2.78-4.12L13.92.765a10.375,10.375,0,0,1,7.82,0l11.14,4.56a4.842,4.842,0,0,1,2.78,4.12Z" transform="translate(6.18 4.015)"/><path class="b" d="M0,0H48V48H0Z" transform="translate(48 48) rotate(180)"/></g></g></svg>