<svg xmlns="http://www.w3.org/2000/svg" width="48" height="48" viewBox="0 0 48 48"><defs><style>.a,.b{fill:none;}.a{stroke:#0bab64;stroke-linecap:round;stroke-linejoin:round;stroke-width:2px;}.b{opacity:0;}</style></defs><g transform="translate(-238 -188)"><g transform="translate(238 188)"><path class="a" d="M26,13A13,13,0,0,1,13,26c-.34,0-.7-.02-1.04-.04A13.018,13.018,0,0,0,.04,14.04C.02,13.7,0,13.34,0,13a13,13,0,0,1,26,0Z" transform="translate(18 4)"/><path class="a" d="M26,13A13,13,0,1,1,13,0c.34,0,.7.02,1.04.04A13.018,13.018,0,0,1,25.96,11.96C25.98,12.3,26,12.66,26,13Z" transform="translate(4 18)"/><path class="a" d="M3.24,3.24,5,0,6.76,3.24,10,5,6.76,6.76,5,10,3.24,6.76,0,5Z" transform="translate(12 26)"/><path class="b" d="M0,0H48V48H0Z"/></g></g></svg>