<?xml version="1.0" encoding="utf-8"?>
<!-- Generator: Adobe Illustrator 25.3.1, SVG Export Plug-In . SVG Version: 6.00 Build 0)  -->
<svg version="1.1" id="Layer_1" xmlns="http://www.w3.org/2000/svg" xmlns:xlink="http://www.w3.org/1999/xlink" x="0px" y="0px"
	 width="48px" height="48px" viewBox="0 0 48 48" style="enable-background:new 0 0 48 48;" xml:space="preserve">
<style type="text/css">
	.st0{display:none;}
	.st1{display:inline;}
	.st2{fill:none;stroke:#0BAB64;stroke-width:2;stroke-linecap:round;stroke-linejoin:round;}
	.st3{fill:none;}
	.st4{fill:#0BAB64;}
</style>
<g id="Layer_1_1_" class="st0">
	<g transform="translate(-492 -188)" class="st1">
		<g transform="translate(492 188)">
			<path class="st2" d="M21,4.5L11,8.2c-2.4,1-4,3.4-4.2,6v14.9c0.2,2.7,1.4,5.2,3.5,6.9l8.6,6.4c3.1,2.1,7.2,2.1,10.3,0l8.6-6.4
				c2.1-1.7,3.3-4.2,3.5-6.9V14.2c-0.1-2.6-1.7-5-4.2-6l-10-3.7C25.1,3.8,23,3.8,21,4.5z"/>
			<path class="st3" d="M48,48H0V0h48V48z"/>
			<path class="st2" d="M28,21c0,2.2-1.8,4-4,4s-4-1.8-4-4s1.8-4,4-4S28,18.8,28,21z"/>
			<path class="st2" d="M24,25v6"/>
		</g>
	</g>
</g>
<g id="Layer_2_1_">
	<path class="st4" d="M16.2,22.1l-0.9-0.7v22.8h7.2V25.7l-0.3-0.2C20.1,24.6,18.1,23.5,16.2,22.1z M21.3,43.1h-4.8V23.8
		c1.5,1,3.2,1.9,4.8,2.7V43.1z"/>
	<path class="st4" d="M11,17.7l-5.4-5.4v31.9h7.2V19.5l-0.2-0.2C12.1,18.8,11.5,18.3,11,17.7z M11.7,43.1H6.9V15.3l3.3,3.3
		c0.5,0.5,1,1,1.5,1.4V43.1z"/>
	<path class="st4" d="M25.7,27l-0.8-0.3v17.5h7.2V28.7l-0.5-0.1C29.7,28.2,27.7,27.7,25.7,27z M31,43.1h-4.8V28.4
		c1.6,0.5,3.2,0.9,4.8,1.2V43.1z"/>
	<path class="st4" d="M35.2,29.1L34.6,29v15.3h7.2V29.2h-3.1C37.6,29.2,36.4,29.2,35.2,29.1z M40.6,43.1h-4.8V30.3
		c1,0.1,2,0.1,2.9,0.1h1.9C40.6,30.4,40.6,43.1,40.6,43.1z"/>
	<path class="st4" d="M15.5,18.6c1.9,1.5,4,2.9,6.1,4c1.2,0.6,2.4,1.2,3.7,1.7c2,0.8,4,1.4,6.1,1.8c1.2,0.2,2.4,0.4,3.7,0.6
		c1.2,0.1,2.4,0.2,3.6,0.2h0.4l-1.4,0.8l0.6,1l4-2.5l-4-2.5l-0.6,1l1.4,0.8h-0.4c-1.1,0-2.3-0.1-3.5-0.2s-2.4-0.3-3.6-0.5
		c-2-0.4-4-1-5.9-1.7c-1.2-0.5-2.4-1-3.6-1.6c-2.1-1.1-4.1-2.4-5.9-3.9c-0.9-0.8-1.8-1.6-2.7-2.4L6.7,8.3L5.8,9.1l6.9,6.9
		C13.6,16.9,14.5,17.8,15.5,18.6z"/>
</g>
</svg>
