<svg xmlns="http://www.w3.org/2000/svg" width="48" height="48" viewBox="0 0 48 48"><defs><style>.a,.b{fill:none;}.a{stroke:#0bab64;stroke-linecap:round;stroke-linejoin:round;stroke-width:2px;}.b{opacity:0;}</style></defs><g transform="translate(-108 -316)"><g transform="translate(111.42 323.04)"><path class="a" d="M35.18,8.8V19.1c0,6.16-3.52,8.8-8.8,8.8H8.8a11.7,11.7,0,0,1-2.56-.26,7.777,7.777,0,0,1-1.42-.38C1.82,26.14,0,23.54,0,19.1V8.8C0,2.64,3.52,0,8.8,0H26.38c4.48,0,7.7,1.9,8.56,6.24A14.463,14.463,0,0,1,35.18,8.8Z"/><path class="a" d="M34.94,8.56v10.3c0,6.16-3.52,8.8-8.8,8.8H8.56a11.231,11.231,0,0,1-3.98-.64A7.019,7.019,0,0,1,0,21.4a11.7,11.7,0,0,0,2.56.26H20.14c5.28,0,8.8-2.64,8.8-8.8V2.56A12.658,12.658,0,0,0,28.7,0C32.5.8,34.94,3.48,34.94,8.56Z" transform="translate(6.242 6.24)"/><path class="a" d="M10.56,5.28A5.28,5.28,0,1,1,5.28,0,5.28,5.28,0,0,1,10.56,5.28Z" transform="translate(12.297 8.68)"/><path class="a" d="M0,0V8.8" transform="translate(6.14 9.56)"/><path class="a" d="M0,0V8.8" transform="translate(29.023 9.561)"/></g><path class="b" d="M0,0H48V48H0Z" transform="translate(108 316)"/></g></svg>