<svg xmlns="http://www.w3.org/2000/svg" width="48" height="48" viewBox="0 0 48 48"><defs><style>.a,.b{fill:none;}.a{stroke:#0bab64;stroke-linecap:round;stroke-linejoin:round;stroke-width:2px;}.b{opacity:0;}</style></defs><g transform="translate(-108 -636)"><g transform="translate(108 636)"><g transform="translate(9.548 3.89)"><path class="a" d="M19.151,16.23H2.471c-2.36,0-3.18-1.58-1.8-3.5L9.011,1.05a2.051,2.051,0,0,1,3.58,0l8.34,11.68C22.331,14.65,21.511,16.23,19.151,16.23Z" transform="translate(3.641)"/><path class="a" d="M25.632,15.88H3.292c-3.16,0-4.24-2.1-2.38-4.66L8.892,0h11.14l7.98,11.22C29.872,13.78,28.792,15.88,25.632,15.88Z" transform="translate(0 16.23)"/></g><path class="a" d="M0,8V0" transform="translate(24 36)"/><path class="b" d="M0,0H48V48H0Z"/></g></g></svg>