<svg xmlns="http://www.w3.org/2000/svg" width="30" height="30" viewBox="0 0 30 30"><defs><style>.a{fill:#37a8ff;}.b{fill:none;opacity:0;}</style></defs><g transform="translate(-300 -316)"><g transform="translate(300 316)"><path class="a" d="M17.738,0H7.262C2.712,0,0,2.712,0,7.262V17.725C0,22.288,2.712,25,7.262,25H17.725c4.55,0,7.262-2.712,7.262-7.262V7.262C25,2.712,22.288,0,17.738,0Zm2.887,18c0,1.875-.75,2.625-2.625,2.625H13.25c-1.875,0-2.625-.75-2.625-2.625V15.75c0-1.875.75-2.625,2.625-2.625H18c1.875,0,2.625.75,2.625,2.625Z" transform="translate(2.5 2.5)"/><path class="b" d="M0,0H30V30H0Z"/></g></g></svg>