<svg xmlns="http://www.w3.org/2000/svg" width="30" height="30" viewBox="0 0 30 30"><defs><style>.a{fill:none;opacity:0;}.b{fill:#ffb300;}</style></defs><g transform="translate(-300 -252)"><g transform="translate(300 252)"><path class="a" d="M0,0H30V30H0Z"/><path class="b" d="M15.35,0H5.9C1.175,0,0,1.262,0,6.3V20.375c0,3.325,1.825,4.112,4.037,1.738L4.05,22.1a2.2,2.2,0,0,1,3.475.188l1.262,1.688a2.173,2.173,0,0,0,3.663,0l1.263-1.687A2.2,2.2,0,0,1,17.2,22.1c2.225,2.375,4.037,1.587,4.037-1.737V6.3C21.25,1.262,20.075,0,15.35,0ZM14.063,10.938H7.188a.938.938,0,0,1,0-1.875h6.875a.938.938,0,0,1,0,1.875Z" transform="translate(4.375 2.5)"/></g></g></svg>