<svg xmlns="http://www.w3.org/2000/svg" width="30" height="30" viewBox="0 0 30 30"><defs><style>.a{fill:none;opacity:0;}.b{fill:#30d158;}</style></defs><g transform="translate(-108 -444)"><g transform="translate(108 444)"><path class="a" d="M0,0H30V30H0Z"/><path class="b" d="M6.25,0H5C1.25,0,0,2.237,0,5V23.75a1.246,1.246,0,0,0,2,1l2.137-1.6a1.259,1.259,0,0,1,1.65.125l2.075,2.087a1.26,1.26,0,0,0,1.775,0l2.1-2.1a1.239,1.239,0,0,1,1.625-.112l2.138,1.6a1.253,1.253,0,0,0,2-1V2.5A2.507,2.507,0,0,1,20,0Zm5.313,14.688H5.938a.938.938,0,0,1,0-1.875h5.625a.938.938,0,0,1,0,1.875Zm.938-5H5A.938.938,0,0,1,5,7.813h7.5a.938.938,0,0,1,0,1.875Z" transform="translate(2.5 2.5)"/><path class="b" d="M2.513,0V1.875a3.146,3.146,0,0,1,2.188.9A3.164,3.164,0,0,1,5.625,5V8.025c0,.925-.412,1.35-1.35,1.35h-2.4V2.513a.64.64,0,0,1,.638-.638Zm0,0A2.513,2.513,0,0,0,0,2.513V11.25H4.275A3.006,3.006,0,0,0,7.5,8.025V5A4.993,4.993,0,0,0,2.513,0Z" transform="translate(20 2.5)"/></g></g></svg>