<svg xmlns="http://www.w3.org/2000/svg" width="30" height="30" viewBox="0 0 30 30"><defs><style>.a{fill:none;opacity:0;}.b{fill:#ff375f;}</style></defs><g transform="translate(-172 -444)"><g transform="translate(172 444)"><path class="a" d="M0,0H30V30H0Z"/><path class="b" d="M14.063,1.15V3.625a1.563,1.563,0,1,1-3.125,0V1.15A2.914,2.914,0,0,1,9.887,0H1.25A1.254,1.254,0,0,0,0,1.25V5.663a7.261,7.261,0,0,0,7.262,7.262H17.725A7.263,7.263,0,0,0,25,5.663V1.25A1.254,1.254,0,0,0,23.75,0H15.113A2.914,2.914,0,0,1,14.063,1.15Z" transform="translate(2.5 14.575)"/><path class="b" d="M17.738,0H7.262A7.261,7.261,0,0,0,0,7.262V8.95A1.254,1.254,0,0,0,1.25,10.2H9.587a2.969,2.969,0,0,1,5.788-.275,2.075,2.075,0,0,1,.038.275H23.75A1.254,1.254,0,0,0,25,8.95V7.262A7.261,7.261,0,0,0,17.738,0Z" transform="translate(2.5 2.5)"/></g></g></svg>