<svg xmlns="http://www.w3.org/2000/svg" width="30" height="30" viewBox="0 0 30 30"><defs><style>.a{fill:none;opacity:0;}.b{fill:#5e5ce6;}</style></defs><g transform="translate(-684 -316)"><g transform="translate(684 316)"><path class="a" d="M0,0H30V30H0Z" transform="translate(30 30) rotate(180)"/><path class="b" d="M6.411,1.275V3.85a1.283,1.283,0,0,1-1.25,1.275H2.711a2.665,2.665,0,0,1-2.7-2.337A2.511,2.511,0,0,1,.761.75,2.491,2.491,0,0,1,2.561,0h2.6A1.283,1.283,0,0,1,6.411,1.275Z" transform="translate(21.089 12.438)"/><path class="b" d="M23.087,15.063H21.3A4.556,4.556,0,0,1,16.725,11a4.4,4.4,0,0,1,1.313-3.525A4.3,4.3,0,0,1,21.15,6.188h1.938a.613.613,0,0,0,.625-.662A5.75,5.75,0,0,0,18.438.062,5.716,5.716,0,0,0,17.5,0H6.25A6.653,6.653,0,0,0,5.238.075,5.817,5.817,0,0,0,0,6.25V15a6.252,6.252,0,0,0,6.25,6.25H17.5a5.852,5.852,0,0,0,6.212-5.525A.613.613,0,0,0,23.087,15.063ZM13.75,7.813H6.25a.938.938,0,0,1,0-1.875h7.5a.938.938,0,0,1,0,1.875Z" transform="translate(2.5 4.375)"/></g></g></svg>