<svg width="46" height="46" viewBox="0 0 46 46" fill="none" xmlns="http://www.w3.org/2000/svg">
<path opacity="0.48" d="M18.7675 35.9375C15.0251 35.9375 11.9792 32.8915 11.9792 29.1492V12.7779H9.18412C6.76109 12.7779 4.79167 14.747 4.79167 17.17V38.7325C4.79167 41.1556 6.76109 43.125 9.18412 43.125H29.1492C31.5722 43.125 33.5417 41.1556 33.5417 38.7325V35.9375H18.7675Z" fill="#637381"/>
<path d="M39.9305 7.56029C39.9305 4.97229 37.9642 2.875 35.5383 2.875H18.7675C16.3412 2.875 14.375 4.97229 14.375 7.56029V28.8564C14.375 31.4444 16.3412 33.5417 18.7675 33.5417H35.5383C37.9642 33.5417 39.9305 31.4444 39.9305 28.8564V7.56029Z" fill="#637381"/>
</svg>
