<svg width="22" height="22" viewBox="0 0 22 22" fill="none" xmlns="http://www.w3.org/2000/svg">
<g clip-path="url(#clip0)">
<path d="M10.9937 3.18799C10.9937 3.18799 6.9272 3.32186 4.47559 4.38451V10.844L15.7839 3.8239C14.2093 3.47007 12.6062 3.25723 10.9937 3.18799Z" fill="#B4BCC3"/>
<path d="M16.8676 4.13766L4.54675 11.777C4.78224 12.9239 5.26953 14.0041 5.97337 14.9398L17.5244 7.76906V4.3845C17.3152 4.29664 17.106 4.21297 16.8676 4.13766Z" fill="#637381"/>
<path d="M6.52557 15.6008C7.77465 16.9601 9.29744 18.0395 10.9937 18.7679C17.3737 15.8393 17.5202 11.3001 17.5243 11.1076V8.75223L6.52557 15.6008Z" fill="#B4BCC3"/>
<path d="M20.1098 1.76974C16.8173 0.188329 11.2405 0.00424902 10.9937 6.53898e-05C10.7468 -0.00411824 5.1826 0.188329 1.89008 1.76974C1.7448 1.83893 1.65208 1.98536 1.65161 2.14627V11.1494C1.65161 11.4256 1.81896 17.9646 10.8556 21.9641C10.9635 22.0119 11.0866 22.0119 11.1945 21.9641C20.1977 17.9604 20.3441 11.4172 20.3483 11.1453V2.14627C20.3478 1.98536 20.2551 1.83893 20.1098 1.76974ZM18.361 11.1118C18.361 11.3335 18.2272 16.4752 11.1652 19.6088C11.0573 19.6566 10.9342 19.6566 10.8263 19.6088C3.76016 16.4752 3.63047 11.3335 3.63047 11.116V4.11676C3.63094 3.95585 3.72366 3.80942 3.86894 3.74023C6.44605 2.48514 10.8012 2.35963 10.9811 2.35545C11.161 2.35127 15.5455 2.50188 18.1226 3.74023C18.2679 3.80942 18.3606 3.95585 18.361 4.11676V11.1118Z" fill="#637381"/>
</g>
<defs>
<clipPath id="clip0">
<rect width="22" height="22" fill="white"/>
</clipPath>
</defs>
</svg>
