<svg height="24" viewBox="0 0 24 24" width="24" xmlns="http://www.w3.org/2000/svg">
    <path d="M9.99998 4.12247C6.75908 4.12247 4.12244 6.75915 4.12244 10C4.12244 13.2409 6.75908 15.8775 9.99998 15.8775C13.2409 15.8775 15.8775 13.2409 15.8775 10C15.8775 6.75911 13.2409 4.12247 9.99998 4.12247ZM10.4497 11.9813V12.5864H9.68111V12.0086C9.13603 11.9759 8.60728 11.8287 8.28025 11.627L8.69451 10.6895C9.05423 10.902 9.53392 11.0383 9.95365 11.0383C10.3188 11.0383 10.4497 10.962 10.4497 10.8312C10.4497 10.3515 8.34021 10.7385 8.34021 9.31587C8.34021 8.69989 8.78716 8.18208 9.68111 8.05672V7.46258H10.4497V8.04583C10.853 8.08399 11.2455 8.18755 11.5562 8.362L11.1692 9.29407C10.7931 9.10329 10.4388 9.01063 10.1063 9.01063C9.73017 9.01063 9.61025 9.11962 9.61025 9.25047C9.61025 9.70837 11.7197 9.32676 11.7197 10.7331C11.7197 11.3218 11.2945 11.8341 10.4497 11.9813Z" fill="#637381"/>
    <path d="M19.9406 8.91336L18.7749 9.04219C18.9929 11.0141 18.5262 13.0298 17.4606 14.7182C16.3803 16.4298 14.7263 17.7272 12.8031 18.3714C11.8824 18.6798 10.9367 18.8275 9.99994 18.8274C7.296 18.8273 4.67182 17.5955 2.976 15.4427H4.13709V14.2699H1.00146V17.55H2.1742V16.3148C3.29248 17.6764 4.77451 18.7382 6.45717 19.3645C7.59416 19.7878 8.79357 20 9.99147 20C11.0696 20 12.1467 19.828 13.1756 19.4834C15.3542 18.7537 17.2282 17.2836 18.4522 15.3441C19.659 13.432 20.1876 11.1482 19.9406 8.91336Z" fill="#637381"/>
    <path d="M2.49832 5.3554C3.57852 3.61013 5.24723 2.28927 7.19703 1.6361C9.09582 1.00013 11.0933 1.02032 12.9737 1.6947C14.4421 2.22134 15.7512 3.1356 16.7498 4.31677L15.6322 4.31638L15.6318 5.48911L18.8022 5.49017V2.35677H17.6295V3.54134C16.5002 2.21267 15.0241 1.18419 13.3696 0.590791C11.2389 -0.173311 8.97563 -0.196397 6.82461 0.524111C4.61574 1.26399 2.7252 2.7606 1.50117 4.73817C0.293086 6.69005 -0.211133 9.01185 0.0813672 11.2759L1.24441 11.1256C0.986328 9.12802 1.43164 7.0788 2.49832 5.3554Z" fill="#637381"/>
</svg>