<svg width="19" height="19" viewBox="0 0 19 19" fill="none" xmlns="http://www.w3.org/2000/svg">
<g clip-path="url(#clip0)">
<path d="M14.2221 0.576309C11.9525 0.576309 10.6764 2.14982 10.0375 3.33446C9.39697 2.15038 8.12029 0.576309 5.85614 0.576309C3.15354 0.576309 1.11542 2.76799 1.11542 5.67484C1.11542 6.78935 1.45753 7.83427 2.14535 8.90376C2.85306 8.57817 3.63307 8.38453 4.46179 8.38453C7.53693 8.38453 10.0391 10.8867 10.0391 13.9618C10.0391 14.6359 9.90043 15.2741 9.6803 15.8729L10.0391 16.1835L10.4046 15.867C11.3136 15.0789 12.1698 14.3665 12.9628 13.7069C16.5756 10.7015 19 8.71569 19 5.67488C19 2.76803 16.9247 0.576309 14.2221 0.576309Z" fill="#637381"/>
<path d="M4.46185 9.5C1.9976 9.5 0 11.4976 0 13.9618C0 16.426 1.9976 18.4237 4.46185 18.4237C6.92609 18.4237 8.92369 16.426 8.92369 13.9618C8.92369 11.4976 6.92609 9.5 4.46185 9.5ZM4.46185 13.4041C5.3845 13.4041 6.13503 14.1547 6.13503 15.0773C6.13503 16 5.3845 16.7505 4.46185 16.7505C3.5392 16.7505 2.78866 15.9999 2.78866 15.0773H3.90413C3.90413 15.385 4.15413 15.635 4.46185 15.635C4.76956 15.635 5.01956 15.385 5.01956 15.0773C5.01956 14.7696 4.76956 14.5196 4.46185 14.5196C3.5392 14.5196 2.78866 13.7691 2.78866 12.8464C2.78866 11.9238 3.5392 11.1732 4.46185 11.1732C5.3845 11.1732 6.13503 11.9238 6.13503 12.8464H5.01956C5.01956 12.5387 4.76956 12.2887 4.46185 12.2887C4.15413 12.2887 3.90413 12.5387 3.90413 12.8464C3.90413 13.1541 4.15413 13.4041 4.46185 13.4041Z" fill="#B4BCC3"/>
</g>
<defs>
<clipPath id="clip0">
<rect width="19" height="19" fill="white"/>
</clipPath>
</defs>
</svg>
