<svg width="21" height="19" viewBox="0 0 21 19" fill="none" xmlns="http://www.w3.org/2000/svg">
<path d="M6.72278 4.42771V7.59949C8.23605 7.99443 9.53136 8.93475 10.3849 10.1972H11.8261V6.6259L11.4872 4.42767H6.72278V4.42771Z" fill="#B4BCC3"/>
<path d="M5.1201 7.39449C5.24508 7.39449 5.36911 7.39851 5.49232 7.40569V4.4277H2.00977V8.21008C2.92962 7.69115 3.99078 7.39449 5.1201 7.39449Z" fill="#B4BCC3"/>
<path d="M17.8778 11.3904C18.4235 11.3904 18.9459 11.4916 19.4277 11.6758V9.93752C19.4277 8.2964 18.0926 6.96122 16.4514 6.96122H15.0527V5.89177L16.0912 5.19939L15.4087 4.1756L13.8222 5.23323V6.96118H13.0565V11.4277H11.0328C11.3154 12.146 11.4706 12.9278 11.4706 13.7451C11.4706 14.3049 11.3975 14.8478 11.2609 15.3652H13.5416C13.7338 13.1414 15.605 11.3904 17.8778 11.3904Z" fill="#B4BCC3"/>
<path d="M10.2402 13.7451C10.2402 10.9219 7.94333 8.625 5.1201 8.625C2.29688 8.62496 0 10.9218 0 13.7451C0 16.5684 2.29688 18.8652 5.1201 18.8652C7.94333 18.8652 10.2402 16.5683 10.2402 13.7451ZM5.1201 16.2402C3.74428 16.2402 2.625 15.1209 2.625 13.7451C2.625 12.3693 3.74428 11.25 5.1201 11.25C6.49593 11.25 7.61521 12.3693 7.61521 13.7451C7.61521 15.1209 6.49589 16.2402 5.1201 16.2402Z" fill="#637381"/>
<path d="M6.38474 13.7451C6.38474 13.0478 5.81741 12.4805 5.1201 12.4805C4.42276 12.4804 3.85547 13.0478 3.85547 13.7451C3.85547 14.4424 4.4228 15.0097 5.1201 15.0097C5.81741 15.0097 6.38474 14.4424 6.38474 13.7451Z" fill="#637381"/>
<path d="M12.4277 3.19725V2.59567C12.4277 1.23871 11.3237 0.134735 9.96676 0.134735H3.59564C2.23868 0.134735 1.1347 1.23871 1.1347 2.59567V3.19725H12.4277Z" fill="#637381"/>
<path d="M17.8778 12.6208C16.1562 12.6208 14.7556 14.0215 14.7556 15.743C14.7556 17.4646 16.1563 18.8652 17.8778 18.8652C19.5994 18.8652 21 17.4646 21 15.743C21 14.0215 19.5994 12.6208 17.8778 12.6208ZM17.2625 16.3583V15.1278H18.493V16.3583H17.2625Z" fill="#637381"/>
</svg>
