<svg width="24" height="20" viewBox="0 0 24 20" fill="none" xmlns="http://www.w3.org/2000/svg">
<path d="M12 9.95988L10.7106 12.1089L12 14.2578L13.2893 12.1089L12 9.95988ZM12 9.95988L10.7106 12.1089L12 14.2578L13.2893 12.1089L12 9.95988ZM22.876 6.62324L17.8413 10.3681L12.6102 1.2145C12.3407 0.742525 11.6592 0.742994 11.3897 1.2145L6.15861 10.3681L1.12389 6.62324C0.593796 6.22907 -0.139243 6.72167 0.0229256 7.36097L1.94458 14.921H6.37562C6.7637 14.921 7.07866 15.236 7.07866 15.6241C7.07866 16.0121 6.7637 16.3271 6.37562 16.3271H2.30172L2.88197 18.6097C2.96117 18.9209 3.24192 19.1393 3.56345 19.1393H20.4365C20.758 19.1393 21.0387 18.9209 21.118 18.6097L21.6982 16.3271H17.6243C17.2362 16.3271 16.9213 16.0121 16.9213 15.6241C16.9213 15.236 17.2362 14.921 17.6243 14.921H22.0553L23.977 7.36097C24.1396 6.72026 23.4052 6.23001 22.876 6.62324ZM14.7118 12.4707L12.6027 15.9859C12.3309 16.4391 11.6709 16.4419 11.3972 15.9859L9.28809 12.4707C9.15451 12.2481 9.15451 11.9696 9.28809 11.747L11.3972 8.2318C11.6691 7.77858 12.329 7.77576 12.6027 8.2318L14.7118 11.747C14.8454 11.9696 14.8454 12.2481 14.7118 12.4707ZM10.7106 12.1089L12 14.2578L13.2893 12.1089L12 9.95988L10.7106 12.1089Z" fill="#637381"/>
<path d="M7.04913 5.97644L5.72506 8.2932L3.76123 6.83228L4.28008 4.23759C4.39912 3.64281 5.16779 3.46846 5.53196 3.95356L7.04913 5.97644Z" fill="#637381"/>
<path d="M20.2387 6.83228L18.2749 8.2932L16.9508 5.97644L18.468 3.95356C18.8317 3.46846 19.6008 3.64281 19.7199 4.23759L20.2387 6.83228Z" fill="#637381"/>
</svg>
