<svg width="20" height="20" viewBox="0 0 20 20" fill="none" xmlns="http://www.w3.org/2000/svg">
<path d="M17.6299 10.0027C17.5406 10.4513 17.1428 10.7781 16.6658 10.7984C16.5156 10.8044 16.3877 10.9141 16.3592 11.0622C16.3288 11.2104 16.4039 11.3606 16.5399 11.4235C16.9722 11.6265 17.2138 12.0812 17.1224 12.5297L17.0372 12.956C16.9255 13.5182 16.3044 13.8694 15.7605 13.7354C15.6082 13.6989 15.4519 13.6705 15.2977 13.64C15.0703 13.5954 14.843 13.5487 14.6157 13.504C14.3152 13.4431 14.0148 13.3843 13.7144 13.3234C13.3572 13.2524 12.9979 13.1793 12.6407 13.1082C12.2409 13.027 11.841 12.9479 11.4411 12.8667C11.0149 12.7815 10.5866 12.6962 10.1603 12.6089C9.72187 12.5217 9.28346 12.4323 8.84706 12.3451C8.41269 12.2578 7.98035 12.1705 7.54596 12.0832C7.1319 12 6.71781 11.9168 6.30376 11.8336C5.92419 11.7585 5.54665 11.6813 5.16709 11.6062C4.83826 11.5413 4.50944 11.4743 4.18265 11.4093C3.92081 11.3566 3.65897 11.3038 3.3951 11.251C3.21445 11.2145 3.03378 11.1779 2.85315 11.1414C2.76991 11.1252 2.68671 11.1069 2.60349 11.0907C2.59943 11.0907 2.59537 11.0886 2.59129 11.0886C2.63594 11.2997 2.61564 11.525 2.51822 11.7361C2.31319 12.1786 1.83619 12.41 1.37748 12.3207C1.24149 12.2943 1.09332 12.3451 1.03445 12.4709L0.851774 12.8667C0.792931 12.9925 0.851774 13.1387 0.959372 13.226C0.979669 13.2422 15.6103 19.9871 15.6346 19.9932C15.7706 20.0196 15.9188 19.9688 15.9776 19.843L16.1603 19.4472C16.2192 19.3214 16.1603 19.1752 16.0527 19.0879C15.6874 18.7977 15.5534 18.2841 15.7584 17.8417C15.9634 17.3992 16.4404 17.1678 16.8991 17.2571C17.0351 17.2835 17.1833 17.2327 17.2421 17.1069L17.4248 16.7111C17.4837 16.5852 17.4248 16.4391 17.3172 16.3518C16.9519 16.0616 16.8179 15.548 17.0229 15.1056C17.2279 14.6631 17.7049 14.4317 18.1637 14.521C18.2997 14.5474 18.4478 14.4966 18.5067 14.3708L18.6894 13.975C18.7482 13.8491 18.6894 13.703 18.5818 13.6157C18.2164 13.3255 18.0825 12.8119 18.2875 12.3694C18.4925 11.9269 18.9695 11.6956 19.4282 11.7849C19.5642 11.8113 19.7124 11.7605 19.7712 11.6347L19.9722 11.1962C20.031 11.0704 19.9762 10.9222 19.8504 10.8634L17.6643 9.85458L17.6299 10.0027Z" fill="#637381"/>
<path d="M0.195929 9.86264C0.220287 9.87481 16.0139 13.0433 16.0403 13.0433C16.1784 13.0372 16.3123 12.9519 16.3387 12.818L16.4239 12.3917C16.4503 12.2557 16.361 12.1258 16.2352 12.0669C15.813 11.868 15.5633 11.4012 15.6587 10.9222C15.7541 10.4431 16.1662 10.1082 16.633 10.0879C16.771 10.0818 16.905 9.99658 16.9314 9.86262L16.9943 9.55003L17.0167 9.43433C17.043 9.29834 16.9537 9.16844 16.8279 9.10957C16.4057 8.91066 16.156 8.44381 16.2514 7.9648C16.3468 7.48576 16.7589 7.15085 17.2257 7.13055C17.3638 7.12446 17.4977 7.03921 17.5241 6.90524L17.6094 6.47899C17.6357 6.343 17.5464 6.21309 17.4206 6.15423C16.9984 5.95531 16.7487 5.48846 16.8441 5.00944C16.9395 4.53041 17.3516 4.1955 17.8184 4.1752C17.9564 4.16911 18.0904 4.08386 18.1168 3.9499L18.2122 3.47696C18.2386 3.34097 18.1513 3.20903 18.0153 3.18265C18.0153 3.18265 2.14453 -3.05176e-05 2.12829 -3.05176e-05C2.01056 -3.05176e-05 1.90705 0.08319 1.88269 0.200917L1.78729 0.673853C1.7609 0.809847 1.85021 0.939752 1.97606 0.998616C2.39825 1.19753 2.64791 1.66438 2.55251 2.14341C2.45711 2.62243 2.04507 2.95734 1.57822 2.97764C1.44018 2.98373 1.30623 3.06898 1.27985 3.20294L1.1946 3.6292C1.16821 3.76519 1.25752 3.8951 1.38337 3.95396C1.80556 4.15288 2.05524 4.61972 1.95982 5.09875C1.86442 5.57777 1.45238 5.91269 0.98553 5.93298C0.847506 5.93907 0.713541 6.02432 0.687154 6.15829L0.601904 6.58454C0.575517 6.72053 0.664847 6.85044 0.790672 6.9093C1.21289 7.10822 1.46255 7.57507 1.36713 8.05409C1.27173 8.53314 0.859685 8.86805 0.392837 8.88835C0.254813 8.89444 0.120848 8.97969 0.0944611 9.11365L0.00921074 9.5399C-0.0192263 9.6759 0.0700632 9.80377 0.195929 9.86264ZM13.7243 4.66034C13.7792 4.38632 14.0471 4.2077 14.3211 4.2625C14.5951 4.31731 14.7737 4.58524 14.7189 4.85926L14.0491 8.19214L13.6371 10.2463C13.5884 10.4878 13.3773 10.6543 13.1398 10.6543C13.1073 10.6543 13.0728 10.6502 13.0403 10.6441C12.7663 10.5893 12.5877 10.3214 12.6425 10.0474L13.1032 7.75576L13.7243 4.66034ZM4.57414 2.8234C4.62895 2.54938 4.89688 2.37076 5.1709 2.42556C5.44492 2.48037 5.62354 2.7483 5.56873 3.02232L5.33734 4.17319L5.07552 5.47834L4.86442 6.52976L4.48891 8.40932C4.44022 8.65086 4.2291 8.81733 3.99162 8.81733C3.95914 8.81733 3.92464 8.81327 3.89218 8.80718C3.87797 8.80513 3.86377 8.80107 3.85159 8.79703C3.5999 8.72394 3.44358 8.47021 3.49638 8.21043L3.57146 7.83086L3.76835 6.84845L4.57414 2.8234Z" fill="#637381"/>
</svg>
