<?xml version="1.0" encoding="utf-8"?>
<!-- Generator: Adobe Illustrator 22.0.1, SVG Export Plug-In . SVG Version: 6.00 Build 0)  -->
<svg version="1.1" id="Layer_1" xmlns="http://www.w3.org/2000/svg" xmlns:xlink="http://www.w3.org/1999/xlink" x="0px" y="0px"
	 viewBox="0 0 29 29" style="enable-background:new 0 0 29 29;" xml:space="preserve">
<style type="text/css">
	.st0{fill:#637381;}
	.st1{fill:#B4BCC3;}
</style>
<g>
	<path class="st0" d="M7.7,23.3v-1.1H6.6C6.9,22.7,7.2,23.1,7.7,23.3z"/>
	<path class="st0" d="M7.2,20.8c0-0.2,0-0.3,0.1-0.5h-1c0,0.2,0,0.3,0,0.5s0,0.3,0,0.5h1C7.2,21.1,7.2,21,7.2,20.8z"/>
	<path class="st0" d="M6.6,19.4h1.1v-1.1C7.2,18.5,6.9,18.9,6.6,19.4z"/>
	<path class="st1" d="M10.6,3.8h-0.2C10.8,4,11,4.3,11.3,4.5c0.5,0.6,0.8,1.5,0.8,2.3v2.3h-1V6.8c0-0.6-0.2-1.2-0.6-1.7
		C9.8,4.3,8.7,3.8,7.6,3.8c-1.2,0-2.3,0.6-3,1.5C6,5.5,7.1,6.7,7.1,8.2v1h-1v-1c0-1.1-0.9-1.9-1.9-1.9h-1c-1.1,0-1.9,0.9-1.9,1.9
		v1.9h15.6C16.9,6.6,14.1,3.8,10.6,3.8z M3.3,8.2h-1v-1h1V8.2z M5.2,9.1h-1v-1h1V9.1z M10.1,8.2h-1V7.7c0-1.3-0.6-1.9-1.9-1.9v-1
		c1.9,0,2.9,1,2.9,2.9V8.2z M13,6.7v-1c1.3,0,2.4,1.1,2.4,2.4h-1C14.5,7.3,13.8,6.7,13,6.7z"/>
	<path class="st0" d="M8.7,22.7v1c0.2,0,0.3,0,0.5,0s0.3,0,0.5,0v-1c-0.2,0-0.3,0.1-0.5,0.1C9,22.8,8.8,22.7,8.7,22.7z"/>
	<path class="st0" d="M9.6,18.9v-1c-0.2,0-0.3,0-0.5,0s-0.3,0-0.5,0v1c0.2,0,0.3-0.1,0.5-0.1C9.3,18.9,9.5,18.9,9.6,18.9z"/>
	<path class="st0" d="M10.6,18.3v1.1h1.1C11.4,18.9,11,18.5,10.6,18.3z"/>
	<path class="st1" d="M17.3,14h-17v2.9c0,1.7,1.3,3.1,2.9,3.4C3.5,17.3,6,15,9,15s5.6,2.3,5.8,5.3c1.6-0.2,2.9-1.3,3.3-2.9l0.6-2.3
		V15C18.6,14.4,18,14,17.3,14z"/>
	<path class="st0" d="M0.4,11.1V13h17c0.8,0,1.5,0.3,2,0.9c0.6-1,1.6-1.9,2.8-1.9h6.5v-1H0.4V11.1z"/>
	<path class="st0" d="M9.1,15.9c-2.7,0-4.9,2.2-4.9,4.9s2.2,4.9,4.9,4.9s4.9-2.2,4.9-4.9S11.8,15.9,9.1,15.9z M9.1,24.7
		c-2.1,0-3.9-1.7-3.9-3.9c0-2.1,1.7-3.9,3.9-3.9c2.1,0,3.9,1.7,3.9,3.9S11.3,24.7,9.1,24.7z"/>
	<path class="st0" d="M9.1,21.8c0.5,0,1-0.4,1-1c0-0.5-0.4-1-1-1c-0.5,0-1,0.4-1,1C8.2,21.4,8.6,21.8,9.1,21.8z"/>
	<path class="st0" d="M11.1,20.8c0,0.2,0,0.3-0.1,0.5h1c0-0.2,0-0.3,0-0.5s0-0.3,0-0.5h-1C11.1,20.5,11.1,20.6,11.1,20.8z"/>
	<path class="st0" d="M10.6,23.3c0.4-0.3,0.8-0.6,1.1-1.1h-1.1V23.3z"/>
</g>
</svg>
