<svg width="24" height="24" viewBox="0 0 24 24" fill="none" xmlns="http://www.w3.org/2000/svg">
<path fill-rule="evenodd" clip-rule="evenodd" d="M10.554 2.96609C10.9635 2.29612 11.9365 2.29612 12.3459 2.96609L16.2487 9.35248C16.6763 10.0521 16.1727 10.95 15.3528 10.95H7.54719C6.72722 10.95 6.22367 10.0521 6.65125 9.35248L10.554 2.96609ZM17.225 22.5C19.8345 22.5 21.95 20.3845 21.95 17.775C21.95 15.1655 19.8345 13.05 17.225 13.05C14.6154 13.05 12.5 15.1655 12.5 17.775C12.5 20.3845 14.6154 22.5 17.225 22.5Z" fill="#637381"/>
<path opacity="0.48" d="M2 15.075C2 14.2466 2.67157 13.575 3.5 13.575H8.9C9.72843 13.575 10.4 14.2466 10.4 15.075V20.475C10.4 21.3034 9.72843 21.975 8.9 21.975H3.5C2.67157 21.975 2 21.3034 2 20.475V15.075Z" fill="#637381"/>
</svg>
