<svg width="19" height="19" viewBox="0 0 19 19" fill="none" xmlns="http://www.w3.org/2000/svg">
<g clip-path="url(#clip0)">
<path d="M12.3816 10.8838C12.293 12.92 11.7958 16.15 9.6773 17.6731C7.1978 19.4686 3.22047 18.4395 1.50097 17.86C0.984745 17.6886 0.635528 17.2069 0.633301 16.663C0.633301 14.8485 0.880301 10.7508 3.3598 8.95529C5.47513 7.42263 8.6798 7.94829 10.6431 8.49296C10.6749 8.62754 10.6981 8.76397 10.7128 8.90146C10.7762 9.43217 10.6849 9.96989 10.45 10.45C10.7561 10.4561 11.0612 10.4879 11.362 10.545C11.717 10.6059 12.0607 10.7202 12.3816 10.8838Z" fill="#A0522D"/>
<path d="M11.362 10.545C11.0612 10.4879 10.7561 10.4561 10.45 10.45C10.6849 9.96992 10.7762 9.4322 10.7128 8.90149C10.6981 8.764 10.6749 8.62756 10.6431 8.49299C9.30722 8.10099 7.91821 7.92042 6.52647 7.95782C7.59849 8.01926 8.66047 8.19873 9.69314 8.49299C9.72487 8.62756 9.74814 8.764 9.7628 8.90149C9.8262 9.4322 9.73493 9.96992 9.49997 10.45C9.80609 10.4561 10.1112 10.4879 10.412 10.545C10.767 10.606 11.1107 10.7202 11.4316 10.8838C11.343 12.92 10.8458 16.15 8.7273 17.6732C7.79573 18.3077 6.70018 18.6586 5.5733 18.6833C7.01097 18.7498 8.5088 18.5345 9.68997 17.689C11.8085 16.1532 12.3056 12.939 12.3943 10.8997C12.0704 10.7293 11.7222 10.6097 11.362 10.545Z" fill="#783E22"/>
<path d="M16.2956 5.87413V5.92163C16.2829 6.14474 16.104 6.32232 15.8808 6.3333L15.6655 6.34913C14.6743 6.40297 12.6793 6.34913 11.4538 5.14897C10.1333 3.87597 10.0985 1.6593 10.1333 0.769465C10.138 0.541941 10.3177 0.356711 10.545 0.345132C11.4316 0.272298 13.6515 0.243798 14.9783 1.52947C16.3051 2.81513 16.3431 4.9558 16.2956 5.87413Z" fill="#A4C400"/>
<path d="M14.9878 1.52948C13.7655 0.34198 11.7768 0.27548 10.7825 0.316647C11.8148 0.373647 13.1353 0.633314 14.0378 1.51681C15.3361 2.78348 15.3931 4.94315 15.3456 5.86148V5.90898C15.3393 6.13702 15.1586 6.32183 14.9308 6.33331L14.7186 6.34915C15.0351 6.36519 15.3522 6.36519 15.6686 6.34915L15.884 6.33331C16.1118 6.32183 16.2925 6.13702 16.2988 5.90898V5.86148C16.3431 4.95581 16.2861 2.79298 14.9878 1.52948Z" fill="#90AC00"/>
<path d="M18.145 9.61715C17.6636 10.6336 16.416 11.2575 14.9371 10.7508C14.6484 10.6453 14.3731 10.506 14.117 10.336C13.8468 10.1076 13.5364 9.93145 13.2018 9.81665C12.8692 9.75764 12.5263 9.80995 12.2265 9.96548C11.9163 10.1237 11.6261 10.3182 11.362 10.545C11.0611 10.4879 10.7561 10.4561 10.45 10.45C10.6849 9.96991 10.7762 9.43219 10.7128 8.90148C11.7641 7.70131 13.2683 7.31815 14.5666 7.93248C14.7873 8.03279 14.9991 8.15143 15.2 8.28715C15.5578 8.50248 16.2291 8.76215 16.359 8.50248C16.4029 8.27041 16.3832 8.03076 16.302 7.80898C16.1304 7.31024 15.9185 6.82627 15.6686 6.36181L15.884 6.34598C16.1118 6.3345 16.2925 6.14969 16.2988 5.92165V5.87415C17.8441 6.48215 18.829 8.16998 18.145 9.61715Z" fill="#60A917"/>
<path d="M16.2956 5.87415V5.92165C16.2894 6.06812 16.2096 6.20154 16.0835 6.27631C17.1823 7.05531 17.7618 8.41698 17.195 9.61715C16.8633 10.2923 16.2246 10.7646 15.4818 10.8838C16.5543 11.1163 17.6486 10.5958 18.145 9.61715C18.829 8.16998 17.8441 6.48215 16.2956 5.87415Z" fill="#549414"/>
<path d="M1.89998 16.9765C1.72509 16.9765 1.58331 16.8347 1.58331 16.6598C1.58331 15.4375 1.69415 11.324 3.91081 9.71848C4.67715 9.18331 5.69998 8.89514 6.99831 8.89514C7.1732 8.89514 7.31498 9.03692 7.31498 9.21181C7.31498 9.3867 7.1732 9.52847 6.99831 9.52847C5.84881 9.52847 4.93998 9.76598 4.28765 10.2378C2.26731 11.7166 2.21665 15.8333 2.21665 16.6566C2.21665 16.8315 2.07487 16.9733 1.89998 16.9733V16.9765Z" fill="#F5F5F5"/>
<path d="M8.74634 16.3907C8.09717 16.8625 7.18834 17.1 6.03883 17.1C5.86394 17.1 5.72217 17.2418 5.72217 17.4167C5.72217 17.5915 5.86394 17.7333 6.03883 17.7333C7.3245 17.7333 8.36 17.4547 9.12 16.9037C9.26167 16.8005 9.29286 16.602 9.18967 16.4603C9.08649 16.3187 8.888 16.2875 8.74634 16.3907Z" fill="black"/>
<path d="M16.6218 5.67466C16.644 4.62016 16.5047 2.56182 15.2063 1.30149C13.794 -0.0728422 11.4697 -0.0475088 10.5323 0.0284912C10.1411 0.0464589 9.82946 0.362232 9.81665 0.753658C9.76915 1.70366 9.81665 4.01532 11.2195 5.38966C12.35 6.48532 14.0695 6.69116 15.1778 6.69116H15.4597C15.6705 7.08385 15.8474 7.49384 15.9885 7.91666C16.0277 8.04464 16.0542 8.17616 16.0677 8.30932C15.8147 8.26222 15.5729 8.16766 15.3552 8.03066L15.2348 7.95466C15.0643 7.8429 14.8853 7.74444 14.6997 7.66016C13.4246 7.0829 11.9279 7.32487 10.8997 8.27449C10.8522 8.10897 10.7929 7.94706 10.7223 7.78999C10.6844 7.71458 10.6179 7.65744 10.5376 7.63128C10.4573 7.60512 10.3699 7.61209 10.2948 7.65066C10.146 7.72699 10.0822 7.90589 10.1492 8.05916C7.96732 7.50816 5.15215 7.28332 3.16665 8.69882C0.557317 10.5925 0.31665 14.9023 0.31665 16.6662C0.319884 17.345 0.755548 17.9463 1.39965 18.1608C2.89234 18.6784 4.45624 18.9615 6.03565 19C7.38465 19 8.76215 18.734 9.86415 17.936C11.9162 16.4477 12.5052 13.4805 12.6603 11.5045L12.7205 11.5805C12.7802 11.6666 12.8786 11.7175 12.9833 11.7167C13.0465 11.7168 13.1082 11.6981 13.1607 11.6628C13.304 11.5652 13.3422 11.3703 13.2462 11.2258C13.0665 10.9706 12.8274 10.7631 12.5495 10.621L12.502 10.5925C12.3659 10.5226 12.2252 10.4623 12.0808 10.412C12.1716 10.3538 12.2657 10.3009 12.3627 10.2537C12.5998 10.1291 12.8715 10.0868 13.1353 10.1333C13.3459 10.201 13.5416 10.3085 13.7117 10.45C13.7877 10.507 13.8668 10.564 13.946 10.6147C14.2244 10.7981 14.523 10.949 14.8358 11.0643C15.2036 11.1923 15.5896 11.2597 15.979 11.2638C16.8758 11.2889 17.7238 10.8558 18.2293 10.1146C18.7348 9.37331 18.8283 8.42577 18.4775 7.59999C18.1228 6.74787 17.4603 6.06051 16.6218 5.67466ZM11.6755 4.93366C10.45 3.73982 10.4183 1.63716 10.45 0.785325C10.4482 0.752328 10.4602 0.720067 10.4829 0.696112C10.5057 0.672156 10.5373 0.658612 10.5703 0.658658C10.7667 0.633325 10.9947 0.633325 11.2607 0.633325C12.274 0.633325 13.794 0.813824 14.7662 1.75749C15.7383 2.70116 15.9505 4.16733 15.9853 5.18066C15.447 4.23066 14.3418 2.79932 12.1853 1.62132C12.0858 1.56476 11.9636 1.5656 11.8648 1.62354C11.7661 1.68147 11.7057 1.7877 11.7065 1.9022C11.7073 2.01671 11.7691 2.12209 11.8687 2.17866C14.402 3.56566 15.3805 5.29466 15.6972 6.04199C14.7852 6.09899 12.8377 6.06416 11.6755 4.93366ZM9.49998 17.4167C7.11548 19.1425 3.18565 18.0912 1.60865 17.5592C1.2178 17.4332 0.9521 17.0704 0.949984 16.6598C0.949984 14.9942 1.16848 10.9345 3.54665 9.21182C5.52582 7.77732 8.61332 8.27766 10.374 8.74949C10.4736 9.27748 10.4015 9.82349 10.1682 10.3075C10.1188 10.4055 10.1236 10.5221 10.1811 10.6156C10.2385 10.7092 10.3402 10.7663 10.45 10.7667C10.9998 10.7751 11.5436 10.8824 12.0555 11.0833C11.951 12.9137 11.4728 15.9822 9.49998 17.4167ZM17.86 9.48099C17.48 10.2822 16.435 10.9282 15.0417 10.4532C14.7762 10.3542 14.5233 10.2246 14.288 10.0668L14.079 9.92432C13.8417 9.72733 13.5654 9.58273 13.2683 9.49999C12.8683 9.42411 12.4543 9.48548 12.0935 9.67416C11.8023 9.81942 11.5282 9.9968 11.2765 10.203L10.9092 10.1523C11.0248 9.78299 11.0699 9.39518 11.0422 9.00916C11.9922 8.00216 13.3032 7.68866 14.4432 8.21749C14.6023 8.28846 14.7548 8.37323 14.8992 8.47082L15.0258 8.54999C15.0575 8.56899 15.827 9.03132 16.3115 8.89516C16.4479 8.85705 16.5625 8.76421 16.6282 8.63866C16.7259 8.33549 16.7113 8.00728 16.587 7.71399C16.4711 7.3335 16.3249 6.96287 16.15 6.60566C16.2172 6.57915 16.2802 6.54287 16.3368 6.49799C16.3966 6.44766 16.4489 6.389 16.492 6.32382C17.1179 6.64702 17.6109 7.17921 17.8853 7.82799C18.1063 8.35869 18.0971 8.95731 17.86 9.48099Z" fill="black"/>
</g>
<defs>
<clipPath id="clip0">
<rect width="19" height="19" fill="white"/>
</clipPath>
</defs>
</svg>
