<svg width="21" height="21" viewBox="0 0 21 21" fill="none" xmlns="http://www.w3.org/2000/svg">
<path d="M18.489 2.0872C18.3822 1.4805 18.3031 1.03224 18.211 0.510071C18.1526 0.171857 17.823 -0.052868 17.4974 0.0108293C13.9591 0.634595 5.26265 2.16784 1.72078 2.79255C1.38663 2.85174 1.16313 3.171 1.22199 3.50593L1.5 5.08352C1.5036 5.10382 1.5123 5.12216 1.51648 5.14233C1.72037 6.13692 2.54192 6.83304 3.54286 6.896L3.5468 6.90605C3.71767 6.91671 3.89133 6.91347 4.06798 6.8825L16.69 4.65749C16.8665 4.62619 17.0314 4.56943 17.189 4.50036V4.50007C18.1454 4.08192 18.6574 3.04357 18.489 2.0872Z" fill="#637381"/>
<path d="M9.13654 7.23994H17.1262L17.1593 5.7984C16.6472 5.93043 9.66597 7.14658 9.13654 7.23994Z" fill="#637381"/>
<path d="M19.1712 8.47214H3.15223C2.81168 8.47214 2.53613 8.74772 2.53613 9.08823V10.7727C2.53613 11.9558 3.53027 12.9904 4.75389 12.9904H17.5696C18.7901 12.9904 19.7873 11.9575 19.7873 10.7727V9.08823C19.7874 8.74772 19.5118 8.47214 19.1712 8.47214Z" fill="#B4BCC3"/>
<path d="M4.49542 14.2227L5.75226 20.507C5.81387 20.7904 6.06033 21 6.35606 21H15.9675C16.2632 21 16.5098 20.7905 16.5713 20.507L17.828 14.2227H4.49542Z" fill="#637381"/>
</svg>
